<svg xmlns="http://www.w3.org/2000/svg" width="227.3" height="217" viewBox="0 0 227.3 217">
  <g id="Group_303" data-name="Group 303" transform="translate(-416 -879)">
    <g id="Group_246" data-name="Group 246" transform="translate(-875 -1069.196)">
      <circle id="Ellipse_2" data-name="Ellipse 2" cx="108.5" cy="108.5" r="108.5" transform="translate(1291 1948.196)" fill="#76daf2"/>
      <g id="Group_39" data-name="Group 39" transform="translate(1354.604 1998.863) rotate(-13)">
        <path id="Path_37" data-name="Path 37" d="M51.7,112.488H18.483A10.028,10.028,0,0,1,8.444,102.5V40.432H131.3V56.9a4.222,4.222,0,0,0,8.444,0V18.436A18.455,18.455,0,0,0,121.312,0H18.483A18.483,18.483,0,0,0,0,18.436V102.5a18.483,18.483,0,0,0,18.483,18.436H51.7a4.224,4.224,0,0,0,0-8.449ZM18.483,8.439H121.312a10,10,0,0,1,9.992,9.992V31.984H8.444V18.436A10.029,10.029,0,0,1,18.483,8.439Z" transform="translate(0 0)" fill="#0076b2" stroke="#0076b2" stroke-width="0.5"/>
        <path id="Path_38" data-name="Path 38" d="M4.051,8.1A4.051,4.051,0,1,0,0,4.051,4.051,4.051,0,0,0,4.051,8.1Zm14.276,0a4.051,4.051,0,1,0-4.051-4.051A4.051,4.051,0,0,0,18.326,8.1ZM32.6,8.1a4.051,4.051,0,1,0-4.051-4.051A4.051,4.051,0,0,0,32.6,8.1Zm84.384,50.537c-4.613-4.163-11.294-6.55-18.322-6.55a28.454,28.454,0,0,0-16.517,5.073,28.421,28.421,0,0,0-16.517-5.073c-7.028,0-13.708,2.386-18.317,6.545a7.375,7.375,0,0,0-2.386,5.5V94.061a7.35,7.35,0,0,0,3.577,6.353,7.566,7.566,0,0,0,7.52.178,20.6,20.6,0,0,1,9.611-2.265c5.42,0,10.441,1.908,13.441,5.1a4.224,4.224,0,0,0,6.151,0c3-3.2,8.022-5.1,13.441-5.1a20.6,20.6,0,0,1,9.611,2.265,7.576,7.576,0,0,0,7.52-.178,7.35,7.35,0,0,0,3.577-6.353V64.134a7.4,7.4,0,0,0-2.391-5.495ZM53.361,92.5V64.561a19.285,19.285,0,0,1,12.269-4.027,19.121,19.121,0,0,1,12.3,4.163V92.575A29.948,29.948,0,0,0,53.361,92.5Zm57.572,0c-7.454-3.432-17.135-3.2-24.566.122V64.692a20.469,20.469,0,0,1,24.566-.136Z" transform="translate(20.395 16.19)" fill="#0076b2" stroke="#0076b2" stroke-width="0.5"/>
      </g>
    </g>
  </g>
</svg>
